<svg width="45" height="45" viewBox="0 0 45 45" fill="none" xmlns="http://www.w3.org/2000/svg">
<path d="M4.21875 29.5312L13.8919 19.8581C15.5394 18.2106 18.2106 18.2106 19.8581 19.8581L29.5312 29.5312M26.7188 26.7188L29.3606 24.0769C31.0082 22.4293 33.6793 22.4293 35.3269 24.0769L40.7812 29.5312M7.03125 36.5625H37.9688C39.5221 36.5625 40.7812 35.3033 40.7812 33.75V11.25C40.7812 9.6967 39.5221 8.4375 37.9688 8.4375H7.03125C5.47795 8.4375 4.21875 9.6967 4.21875 11.25V33.75C4.21875 35.3033 5.47795 36.5625 7.03125 36.5625ZM26.7188 15.4688H26.7328V15.4828H26.7188V15.4688ZM27.4219 15.4688C27.4219 15.8571 27.1071 16.1719 26.7188 16.1719C26.3304 16.1719 26.0156 15.8571 26.0156 15.4688C26.0156 15.0804 26.3304 14.7656 26.7188 14.7656C27.1071 14.7656 27.4219 15.0804 27.4219 15.4688Z" stroke="white" stroke-width="2" stroke-linecap="round" stroke-linejoin="round"/>
</svg>
